<?xml version="1.0" encoding="UTF-8" standalone="no"?>
<!DOCTYPE svg PUBLIC "-//W3C//DTD SVG 1.1//EN"
 "http://www.w3.org/Graphics/SVG/1.1/DTD/svg11.dtd">
<!-- Generated by graphviz version 2.47.3 (20210619.1520)
 -->
<!-- Title: dependencies Pages: 1 -->
<svg width="971pt" height="247pt"
 viewBox="0.00 0.00 971.00 246.80" xmlns="http://www.w3.org/2000/svg" xmlns:xlink="http://www.w3.org/1999/xlink">
<g id="graph0" class="graph" transform="scale(1 1) rotate(0) translate(4 242.8)">
<title>dependencies</title>
<polygon fill="white" stroke="transparent" points="-4,4 -4,-242.8 967,-242.8 967,4 -4,4"/>
<text text-anchor="middle" x="481.5" y="-8.2" font-family="sans-serif" font-size="14.00">dependencies</text>
<g id="clust1" class="cluster">
<title>cluster_SharedModule</title>
<polygon fill="none" stroke="black" stroke-dasharray="1,5" points="8,-32.8 8,-230.8 955,-230.8 955,-32.8 8,-32.8"/>
</g>
<g id="clust2" class="cluster">
<title>cluster_SharedModule_declarations</title>
<polygon fill="none" stroke="black" points="164,-40.8 164,-92.8 827,-92.8 827,-40.8 164,-40.8"/>
</g>
<g id="clust9" class="cluster">
<title>cluster_SharedModule_exports</title>
<polygon fill="none" stroke="black" points="16,-170.8 16,-222.8 947,-222.8 947,-170.8 16,-170.8"/>
</g>
<!-- BtnActionComponent -->
<g id="node1" class="node">
<title>BtnActionComponent</title>
<polygon fill="#ffffb3" stroke="black" points="818.66,-84.8 679.34,-84.8 679.34,-48.8 818.66,-48.8 818.66,-84.8"/>
<text text-anchor="middle" x="749" y="-62.6" font-family="Times,serif" font-size="14.00">BtnActionComponent</text>
</g>
<!-- SharedModule -->
<g id="node6" class="node">
<title>SharedModule</title>
<polygon fill="#8dd3c7" stroke="black" points="509.42,-149.8 506.42,-153.8 485.42,-153.8 482.42,-149.8 410.58,-149.8 410.58,-113.8 509.42,-113.8 509.42,-149.8"/>
<text text-anchor="middle" x="460" y="-127.6" font-family="Times,serif" font-size="14.00">SharedModule</text>
</g>
<!-- BtnActionComponent&#45;&gt;SharedModule -->
<g id="edge1" class="edge">
<title>BtnActionComponent&#45;&gt;SharedModule</title>
<path fill="none" stroke="black" d="M728.21,-84.82C728.21,-102.17 728.21,-125.8 728.21,-125.8 728.21,-125.8 519.51,-125.8 519.51,-125.8"/>
<polygon fill="black" stroke="black" points="519.51,-122.3 509.51,-125.8 519.51,-129.3 519.51,-122.3"/>
</g>
<!-- BtnRouteComponent -->
<g id="node2" class="node">
<title>BtnRouteComponent</title>
<polygon fill="#ffffb3" stroke="black" points="661.5,-84.8 526.5,-84.8 526.5,-48.8 661.5,-48.8 661.5,-84.8"/>
<text text-anchor="middle" x="594" y="-62.6" font-family="Times,serif" font-size="14.00">BtnRouteComponent</text>
</g>
<!-- BtnRouteComponent&#45;&gt;SharedModule -->
<g id="edge2" class="edge">
<title>BtnRouteComponent&#45;&gt;SharedModule</title>
<path fill="none" stroke="black" d="M558.44,-85.04C558.44,-100.37 558.44,-119.8 558.44,-119.8 558.44,-119.8 519.22,-119.8 519.22,-119.8"/>
<polygon fill="black" stroke="black" points="519.22,-116.3 509.22,-119.8 519.22,-123.3 519.22,-116.3"/>
</g>
<!-- StateDirective -->
<g id="node3" class="node">
<title>StateDirective</title>
<polygon fill="#ffffb3" stroke="black" points="508.08,-84.8 411.92,-84.8 411.92,-48.8 508.08,-48.8 508.08,-84.8"/>
<text text-anchor="middle" x="460" y="-62.6" font-family="Times,serif" font-size="14.00">StateDirective</text>
</g>
<!-- StateDirective&#45;&gt;SharedModule -->
<g id="edge3" class="edge">
<title>StateDirective&#45;&gt;SharedModule</title>
<path fill="none" stroke="black" d="M460,-84.91C460,-84.91 460,-103.79 460,-103.79"/>
<polygon fill="black" stroke="black" points="456.5,-103.79 460,-113.79 463.5,-103.79 456.5,-103.79"/>
</g>
<!-- TabLightComponent -->
<g id="node4" class="node">
<title>TabLightComponent</title>
<polygon fill="#ffffb3" stroke="black" points="393.93,-84.8 260.07,-84.8 260.07,-48.8 393.93,-48.8 393.93,-84.8"/>
<text text-anchor="middle" x="327" y="-62.6" font-family="Times,serif" font-size="14.00">TabLightComponent</text>
</g>
<!-- TabLightComponent&#45;&gt;SharedModule -->
<g id="edge4" class="edge">
<title>TabLightComponent&#45;&gt;SharedModule</title>
<path fill="none" stroke="black" d="M348.41,-85.04C348.41,-100.37 348.41,-119.8 348.41,-119.8 348.41,-119.8 400.73,-119.8 400.73,-119.8"/>
<polygon fill="black" stroke="black" points="400.73,-123.3 410.73,-119.8 400.73,-116.3 400.73,-123.3"/>
</g>
<!-- TotalPipe -->
<g id="node5" class="node">
<title>TotalPipe</title>
<polygon fill="#ffffb3" stroke="black" points="242.44,-84.8 171.56,-84.8 171.56,-48.8 242.44,-48.8 242.44,-84.8"/>
<text text-anchor="middle" x="207" y="-62.6" font-family="Times,serif" font-size="14.00">TotalPipe</text>
</g>
<!-- TotalPipe&#45;&gt;SharedModule -->
<g id="edge5" class="edge">
<title>TotalPipe&#45;&gt;SharedModule</title>
<path fill="none" stroke="black" d="M215.71,-84.82C215.71,-102.17 215.71,-125.8 215.71,-125.8 215.71,-125.8 400.57,-125.8 400.57,-125.8"/>
<polygon fill="black" stroke="black" points="400.57,-129.3 410.57,-125.8 400.57,-122.3 400.57,-129.3"/>
</g>
<!-- BtnActionComponent  -->
<g id="node7" class="node">
<title>BtnActionComponent </title>
<polygon fill="#fb8072" stroke="black" points="938.66,-214.8 795.34,-214.8 795.34,-178.8 938.66,-178.8 938.66,-214.8"/>
<text text-anchor="middle" x="867" y="-192.6" font-family="Times,serif" font-size="14.00">BtnActionComponent </text>
</g>
<!-- SharedModule&#45;&gt;BtnActionComponent  -->
<g id="edge6" class="edge">
<title>SharedModule&#45;&gt;BtnActionComponent </title>
<path fill="none" stroke="black" stroke-dasharray="5,2" d="M509.37,-131.8C605.2,-131.8 807.12,-131.8 807.12,-131.8 807.12,-131.8 807.12,-168.69 807.12,-168.69"/>
<polygon fill="black" stroke="black" points="803.63,-168.69 807.12,-178.69 810.63,-168.69 803.63,-168.69"/>
</g>
<!-- BtnRouteComponent  -->
<g id="node8" class="node">
<title>BtnRouteComponent </title>
<polygon fill="#fb8072" stroke="black" points="777,-214.8 639,-214.8 639,-178.8 777,-178.8 777,-214.8"/>
<text text-anchor="middle" x="708" y="-192.6" font-family="Times,serif" font-size="14.00">BtnRouteComponent </text>
</g>
<!-- SharedModule&#45;&gt;BtnRouteComponent  -->
<g id="edge7" class="edge">
<title>SharedModule&#45;&gt;BtnRouteComponent </title>
<path fill="none" stroke="black" stroke-dasharray="5,2" d="M509.46,-137.8C565.79,-137.8 650.12,-137.8 650.12,-137.8 650.12,-137.8 650.12,-168.78 650.12,-168.78"/>
<polygon fill="black" stroke="black" points="646.63,-168.78 650.12,-178.78 653.63,-168.78 646.63,-168.78"/>
</g>
<!-- IconsModule  -->
<g id="node9" class="node">
<title>IconsModule </title>
<polygon fill="#fb8072" stroke="black" points="620.87,-214.8 527.13,-214.8 527.13,-178.8 620.87,-178.8 620.87,-214.8"/>
<text text-anchor="middle" x="574" y="-192.6" font-family="Times,serif" font-size="14.00">IconsModule </text>
</g>
<!-- SharedModule&#45;&gt;IconsModule  -->
<g id="edge8" class="edge">
<title>SharedModule&#45;&gt;IconsModule </title>
<path fill="none" stroke="black" stroke-dasharray="5,2" d="M509.35,-143.8C545.97,-143.8 589.56,-143.8 589.56,-143.8 589.56,-143.8 589.56,-168.56 589.56,-168.56"/>
<polygon fill="black" stroke="black" points="586.06,-168.56 589.56,-178.56 593.06,-168.56 586.06,-168.56"/>
</g>
<!-- StateDirective  -->
<g id="node10" class="node">
<title>StateDirective </title>
<polygon fill="#fb8072" stroke="black" points="509.58,-214.8 410.42,-214.8 410.42,-178.8 509.58,-178.8 509.58,-214.8"/>
<text text-anchor="middle" x="460" y="-192.6" font-family="Times,serif" font-size="14.00">StateDirective </text>
</g>
<!-- SharedModule&#45;&gt;StateDirective  -->
<g id="edge9" class="edge">
<title>SharedModule&#45;&gt;StateDirective </title>
<path fill="none" stroke="black" stroke-dasharray="5,2" d="M460,-149.91C460,-149.91 460,-168.79 460,-168.79"/>
<polygon fill="black" stroke="black" points="456.5,-168.79 460,-178.79 463.5,-168.79 456.5,-168.79"/>
</g>
<!-- TabLightComponent  -->
<g id="node11" class="node">
<title>TabLightComponent </title>
<polygon fill="#fb8072" stroke="black" points="392.43,-214.8 255.57,-214.8 255.57,-178.8 392.43,-178.8 392.43,-214.8"/>
<text text-anchor="middle" x="324" y="-192.6" font-family="Times,serif" font-size="14.00">TabLightComponent </text>
</g>
<!-- SharedModule&#45;&gt;TabLightComponent  -->
<g id="edge10" class="edge">
<title>SharedModule&#45;&gt;TabLightComponent </title>
<path fill="none" stroke="black" stroke-dasharray="5,2" d="M410.75,-143.8C365.15,-143.8 304.34,-143.8 304.34,-143.8 304.34,-143.8 304.34,-168.56 304.34,-168.56"/>
<polygon fill="black" stroke="black" points="300.84,-168.56 304.34,-178.56 307.84,-168.56 300.84,-168.56"/>
</g>
<!-- TemplatesModule  -->
<g id="node12" class="node">
<title>TemplatesModule </title>
<polygon fill="#fb8072" stroke="black" points="237.86,-214.8 116.14,-214.8 116.14,-178.8 237.86,-178.8 237.86,-214.8"/>
<text text-anchor="middle" x="177" y="-192.6" font-family="Times,serif" font-size="14.00">TemplatesModule </text>
</g>
<!-- SharedModule&#45;&gt;TemplatesModule  -->
<g id="edge11" class="edge">
<title>SharedModule&#45;&gt;TemplatesModule </title>
<path fill="none" stroke="black" stroke-dasharray="5,2" d="M410.54,-137.8C333.55,-137.8 193.75,-137.8 193.75,-137.8 193.75,-137.8 193.75,-168.78 193.75,-168.78"/>
<polygon fill="black" stroke="black" points="190.25,-168.78 193.75,-178.78 197.25,-168.78 190.25,-168.78"/>
</g>
<!-- TotalPipe  -->
<g id="node13" class="node">
<title>TotalPipe </title>
<polygon fill="#fb8072" stroke="black" points="97.94,-214.8 24.06,-214.8 24.06,-178.8 97.94,-178.8 97.94,-214.8"/>
<text text-anchor="middle" x="61" y="-192.6" font-family="Times,serif" font-size="14.00">TotalPipe </text>
</g>
<!-- SharedModule&#45;&gt;TotalPipe  -->
<g id="edge12" class="edge">
<title>SharedModule&#45;&gt;TotalPipe </title>
<path fill="none" stroke="black" stroke-dasharray="5,2" d="M410.67,-131.8C303.92,-131.8 61,-131.8 61,-131.8 61,-131.8 61,-168.69 61,-168.69"/>
<polygon fill="black" stroke="black" points="57.5,-168.69 61,-178.69 64.5,-168.69 57.5,-168.69"/>
</g>
</g>
</svg>
