<?xml version="1.0" encoding="UTF-8" standalone="no"?>
<!DOCTYPE svg PUBLIC "-//W3C//DTD SVG 1.1//EN"
 "http://www.w3.org/Graphics/SVG/1.1/DTD/svg11.dtd">
<!-- Generated by graphviz version 2.47.3 (20210619.1520)
 -->
<!-- Title: dependencies Pages: 1 -->
<svg width="856pt" height="174pt"
 viewBox="0.00 0.00 856.00 173.80" xmlns="http://www.w3.org/2000/svg" xmlns:xlink="http://www.w3.org/1999/xlink">
<g id="graph0" class="graph" transform="scale(1 1) rotate(0) translate(4 169.8)">
<title>dependencies</title>
<polygon fill="white" stroke="transparent" points="-4,4 -4,-169.8 852,-169.8 852,4 -4,4"/>
<text text-anchor="middle" x="424" y="-8.2" font-family="sans-serif" font-size="14.00">dependencies</text>
<g id="clust1" class="cluster">
<title>cluster_LoginModule</title>
<polygon fill="none" stroke="black" stroke-dasharray="1,5" points="8,-32.8 8,-157.8 840,-157.8 840,-32.8 8,-32.8"/>
</g>
<g id="clust2" class="cluster">
<title>cluster_LoginModule_declarations</title>
<polygon fill="none" stroke="black" points="178,-40.8 178,-92.8 832,-92.8 832,-40.8 178,-40.8"/>
</g>
<g id="clust7" class="cluster">
<title>cluster_LoginModule_imports</title>
<polygon fill="none" stroke="black" points="16,-40.8 16,-92.8 170,-92.8 170,-40.8 16,-40.8"/>
</g>
<!-- PageForgotComponent -->
<g id="node1" class="node">
<title>PageForgotComponent</title>
<polygon fill="#ffffb3" stroke="black" points="823.88,-84.8 678.12,-84.8 678.12,-48.8 823.88,-48.8 823.88,-84.8"/>
<text text-anchor="middle" x="751" y="-62.6" font-family="Times,serif" font-size="14.00">PageForgotComponent</text>
</g>
<!-- LoginModule -->
<g id="node5" class="node">
<title>LoginModule</title>
<polygon fill="#8dd3c7" stroke="black" points="475.49,-149.8 472.49,-153.8 451.49,-153.8 448.49,-149.8 382.51,-149.8 382.51,-113.8 475.49,-113.8 475.49,-149.8"/>
<text text-anchor="middle" x="429" y="-127.6" font-family="Times,serif" font-size="14.00">LoginModule</text>
</g>
<!-- PageForgotComponent&#45;&gt;LoginModule -->
<g id="edge1" class="edge">
<title>PageForgotComponent&#45;&gt;LoginModule</title>
<path fill="none" stroke="black" d="M751,-85.08C751,-106.12 751,-137.8 751,-137.8 751,-137.8 485.82,-137.8 485.82,-137.8"/>
<polygon fill="black" stroke="black" points="485.82,-134.3 475.82,-137.8 485.82,-141.3 485.82,-134.3"/>
</g>
<!-- PageResetComponent -->
<g id="node2" class="node">
<title>PageResetComponent</title>
<polygon fill="#ffffb3" stroke="black" points="659.65,-84.8 520.35,-84.8 520.35,-48.8 659.65,-48.8 659.65,-84.8"/>
<text text-anchor="middle" x="590" y="-62.6" font-family="Times,serif" font-size="14.00">PageResetComponent</text>
</g>
<!-- PageResetComponent&#45;&gt;LoginModule -->
<g id="edge2" class="edge">
<title>PageResetComponent&#45;&gt;LoginModule</title>
<path fill="none" stroke="black" d="M590,-84.82C590,-102.17 590,-125.8 590,-125.8 590,-125.8 485.57,-125.8 485.57,-125.8"/>
<polygon fill="black" stroke="black" points="485.57,-122.3 475.57,-125.8 485.57,-129.3 485.57,-122.3"/>
</g>
<!-- PageSignInComponent -->
<g id="node3" class="node">
<title>PageSignInComponent</title>
<polygon fill="#ffffb3" stroke="black" points="501.88,-84.8 356.12,-84.8 356.12,-48.8 501.88,-48.8 501.88,-84.8"/>
<text text-anchor="middle" x="429" y="-62.6" font-family="Times,serif" font-size="14.00">PageSignInComponent</text>
</g>
<!-- PageSignInComponent&#45;&gt;LoginModule -->
<g id="edge3" class="edge">
<title>PageSignInComponent&#45;&gt;LoginModule</title>
<path fill="none" stroke="black" d="M429,-84.91C429,-84.91 429,-103.79 429,-103.79"/>
<polygon fill="black" stroke="black" points="425.5,-103.79 429,-113.79 432.5,-103.79 425.5,-103.79"/>
</g>
<!-- PageSignUpComponent -->
<g id="node4" class="node">
<title>PageSignUpComponent</title>
<polygon fill="#ffffb3" stroke="black" points="337.82,-84.8 186.18,-84.8 186.18,-48.8 337.82,-48.8 337.82,-84.8"/>
<text text-anchor="middle" x="262" y="-62.6" font-family="Times,serif" font-size="14.00">PageSignUpComponent</text>
</g>
<!-- PageSignUpComponent&#45;&gt;LoginModule -->
<g id="edge4" class="edge">
<title>PageSignUpComponent&#45;&gt;LoginModule</title>
<path fill="none" stroke="black" d="M262,-84.82C262,-102.17 262,-125.8 262,-125.8 262,-125.8 372.48,-125.8 372.48,-125.8"/>
<polygon fill="black" stroke="black" points="372.48,-129.3 382.48,-125.8 372.48,-122.3 372.48,-129.3"/>
</g>
<!-- LoginRoutingModule -->
<g id="node6" class="node">
<title>LoginRoutingModule</title>
<polygon fill="#8dd3c7" stroke="black" points="162.11,-84.8 159.11,-88.8 138.11,-88.8 135.11,-84.8 23.89,-84.8 23.89,-48.8 162.11,-48.8 162.11,-84.8"/>
<text text-anchor="middle" x="93" y="-62.6" font-family="Times,serif" font-size="14.00">LoginRoutingModule</text>
</g>
<!-- LoginRoutingModule&#45;&gt;LoginModule -->
<g id="edge5" class="edge">
<title>LoginRoutingModule&#45;&gt;LoginModule</title>
<path fill="none" stroke="black" d="M93,-85.08C93,-106.12 93,-137.8 93,-137.8 93,-137.8 372.28,-137.8 372.28,-137.8"/>
<polygon fill="black" stroke="black" points="372.28,-141.3 382.28,-137.8 372.28,-134.3 372.28,-141.3"/>
</g>
</g>
</svg>
