<?xml version="1.0" encoding="UTF-8" standalone="no"?>
<!DOCTYPE svg PUBLIC "-//W3C//DTD SVG 1.1//EN"
 "http://www.w3.org/Graphics/SVG/1.1/DTD/svg11.dtd">
<!-- Generated by graphviz version 2.47.3 (20210619.1520)
 -->
<!-- Title: dependencies Pages: 1 -->
<svg width="878pt" height="174pt"
 viewBox="0.00 0.00 878.00 173.80" xmlns="http://www.w3.org/2000/svg" xmlns:xlink="http://www.w3.org/1999/xlink">
<g id="graph0" class="graph" transform="scale(1 1) rotate(0) translate(4 169.8)">
<title>dependencies</title>
<polygon fill="white" stroke="transparent" points="-4,4 -4,-169.8 874,-169.8 874,4 -4,4"/>
<text text-anchor="middle" x="435" y="-8.2" font-family="sans-serif" font-size="14.00">dependencies</text>
<g id="clust1" class="cluster">
<title>cluster_ClientsModule</title>
<polygon fill="none" stroke="black" stroke-dasharray="1,5" points="8,-32.8 8,-157.8 862,-157.8 862,-32.8 8,-32.8"/>
</g>
<g id="clust6" class="cluster">
<title>cluster_ClientsModule_imports</title>
<polygon fill="none" stroke="black" points="578,-40.8 578,-92.8 854,-92.8 854,-40.8 578,-40.8"/>
</g>
<g id="clust2" class="cluster">
<title>cluster_ClientsModule_declarations</title>
<polygon fill="none" stroke="black" points="16,-40.8 16,-92.8 570,-92.8 570,-40.8 16,-40.8"/>
</g>
<!-- PageAddClientComponent -->
<g id="node1" class="node">
<title>PageAddClientComponent</title>
<polygon fill="#ffffb3" stroke="black" points="562.37,-84.8 395.63,-84.8 395.63,-48.8 562.37,-48.8 562.37,-84.8"/>
<text text-anchor="middle" x="479" y="-62.6" font-family="Times,serif" font-size="14.00">PageAddClientComponent</text>
</g>
<!-- ClientsModule -->
<g id="node4" class="node">
<title>ClientsModule</title>
<polygon fill="#8dd3c7" stroke="black" points="528.72,-149.8 525.72,-153.8 504.72,-153.8 501.72,-149.8 429.28,-149.8 429.28,-113.8 528.72,-113.8 528.72,-149.8"/>
<text text-anchor="middle" x="479" y="-127.6" font-family="Times,serif" font-size="14.00">ClientsModule</text>
</g>
<!-- PageAddClientComponent&#45;&gt;ClientsModule -->
<g id="edge1" class="edge">
<title>PageAddClientComponent&#45;&gt;ClientsModule</title>
<path fill="none" stroke="black" d="M479,-84.91C479,-84.91 479,-103.79 479,-103.79"/>
<polygon fill="black" stroke="black" points="475.5,-103.79 479,-113.79 482.5,-103.79 475.5,-103.79"/>
</g>
<!-- PageEditClientComponent -->
<g id="node2" class="node">
<title>PageEditClientComponent</title>
<polygon fill="#ffffb3" stroke="black" points="378.1,-84.8 211.9,-84.8 211.9,-48.8 378.1,-48.8 378.1,-84.8"/>
<text text-anchor="middle" x="295" y="-62.6" font-family="Times,serif" font-size="14.00">PageEditClientComponent</text>
</g>
<!-- PageEditClientComponent&#45;&gt;ClientsModule -->
<g id="edge2" class="edge">
<title>PageEditClientComponent&#45;&gt;ClientsModule</title>
<path fill="none" stroke="black" d="M295,-84.82C295,-102.17 295,-125.8 295,-125.8 295,-125.8 419.21,-125.8 419.21,-125.8"/>
<polygon fill="black" stroke="black" points="419.21,-129.3 429.21,-125.8 419.21,-122.3 419.21,-129.3"/>
</g>
<!-- PageListClientsComponent -->
<g id="node3" class="node">
<title>PageListClientsComponent</title>
<polygon fill="#ffffb3" stroke="black" points="193.99,-84.8 24.01,-84.8 24.01,-48.8 193.99,-48.8 193.99,-84.8"/>
<text text-anchor="middle" x="109" y="-62.6" font-family="Times,serif" font-size="14.00">PageListClientsComponent</text>
</g>
<!-- PageListClientsComponent&#45;&gt;ClientsModule -->
<g id="edge3" class="edge">
<title>PageListClientsComponent&#45;&gt;ClientsModule</title>
<path fill="none" stroke="black" d="M109,-85.08C109,-106.12 109,-137.8 109,-137.8 109,-137.8 419.1,-137.8 419.1,-137.8"/>
<polygon fill="black" stroke="black" points="419.1,-141.3 429.1,-137.8 419.1,-134.3 419.1,-141.3"/>
</g>
<!-- ClientsRoutingModule -->
<g id="node5" class="node">
<title>ClientsRoutingModule</title>
<polygon fill="#8dd3c7" stroke="black" points="846.34,-84.8 843.34,-88.8 822.34,-88.8 819.34,-84.8 701.66,-84.8 701.66,-48.8 846.34,-48.8 846.34,-84.8"/>
<text text-anchor="middle" x="774" y="-62.6" font-family="Times,serif" font-size="14.00">ClientsRoutingModule</text>
</g>
<!-- ClientsRoutingModule&#45;&gt;ClientsModule -->
<g id="edge4" class="edge">
<title>ClientsRoutingModule&#45;&gt;ClientsModule</title>
<path fill="none" stroke="black" d="M774,-85.08C774,-106.12 774,-137.8 774,-137.8 774,-137.8 538.71,-137.8 538.71,-137.8"/>
<polygon fill="black" stroke="black" points="538.71,-134.3 528.71,-137.8 538.71,-141.3 538.71,-134.3"/>
</g>
<!-- SharedModule -->
<g id="node6" class="node">
<title>SharedModule</title>
<polygon fill="#8dd3c7" stroke="black" points="684.42,-84.8 681.42,-88.8 660.42,-88.8 657.42,-84.8 585.58,-84.8 585.58,-48.8 684.42,-48.8 684.42,-84.8"/>
<text text-anchor="middle" x="635" y="-62.6" font-family="Times,serif" font-size="14.00">SharedModule</text>
</g>
<!-- SharedModule&#45;&gt;ClientsModule -->
<g id="edge5" class="edge">
<title>SharedModule&#45;&gt;ClientsModule</title>
<path fill="none" stroke="black" d="M635,-84.82C635,-102.17 635,-125.8 635,-125.8 635,-125.8 538.79,-125.8 538.79,-125.8"/>
<polygon fill="black" stroke="black" points="538.79,-122.3 528.79,-125.8 538.79,-129.3 538.79,-122.3"/>
</g>
</g>
</svg>
